<svg width="800" height="800" xmlns="http://www.w3.org/2000/svg" p-id="1251" version="1.1" class="icon" t="1713177392753">

 <g>
  <title>Layer 1</title>
  <path id="svg_1" p-id="1252" fill="#FDDF6D" d="m736.1759,411.90977c0,180.93234 -146.28571,327.21805 -327.21804,327.21805s-327.21805,-146.28571 -327.21805,-327.21805s146.28572,-327.21804 327.21805,-327.21804s327.21804,146.28571 327.21804,327.21804zm0,0"/>
  <path id="svg_2" p-id="1253" fill="#FCC56B" d="m479.5343,691.00752c-180.93233,0 -327.21805,-146.28571 -327.21805,-327.21805c0,-96.2406 41.70426,-183.49874 108.43108,-243.16792c-105.86466,53.89474 -178.36592,164.25063 -178.36591,291.28822c0,180.93233 146.28571,327.21805 327.21804,327.21805c84.05013,0 161.04261,-32.0802 218.78697,-84.05013c-44.91228,23.09775 -95.599,35.92983 -148.85213,35.92983zm0,0"/>
  <path id="svg_3" p-id="1254" fill="#FFFFFF" d="m446.81249,310.53634c0,52.61153 -42.34586,94.95739 -94.95739,94.95739c-52.61153,0 -94.95739,-42.34586 -94.95739,-94.95739c0,-52.61153 42.34586,-94.95739 94.95739,-94.95739c52.61153,0 94.95739,42.34586 94.95739,94.95739zm0,0m266.26567,0c0,52.61153 -42.34587,94.95739 -94.9574,94.95739c-52.61153,0 -94.95739,-42.34586 -94.95739,-94.95739c0,-52.61153 42.34586,-94.95739 94.95739,-94.95739c52.61153,0 94.9574,42.34586 94.9574,94.95739zm0,0"/>
  <path id="svg_4" p-id="1255" fill="#F9A880" d="m268.44658,441.42356c-24.38095,0 -44.27068,19.88972 -44.27068,44.27068l87.89975,0c0.6416,-24.38096 -19.24812,-44.27068 -43.62907,-44.27068zm0,0m383.6792,-5.77444c-24.38096,0 -44.27068,19.88973 -44.27068,44.27068l87.89975,0c0.6416,-24.38095 -19.24812,-44.27068 -43.62907,-44.27068zm0,0"/>
  <path id="svg_5" p-id="1256" fill="#7F184C" d="m546.26111,544.0802l-141.79448,0c-7.05765,0 -13.47369,-5.77444 -13.47369,-13.47368c0,-7.05765 5.77444,-13.47369 13.47369,-13.47369l141.79448,0c7.05765,0 13.47369,5.77444 13.47369,13.47369c-0.64161,7.05764 -6.41604,13.47368 -13.47369,13.47368zm0,0m-151.41854,-233.54386c0,14.75689 -12.19048,26.30577 -26.30577,26.30577c-14.75689,0 -26.30576,-12.19048 -26.30576,-26.30577s12.19048,-26.30576 26.30576,-26.30576c14.11529,0 26.30577,11.54887 26.30577,26.30576zm0,0m270.11529,0c0,14.75689 -12.19048,26.30577 -26.30577,26.30577c-14.75689,0 -26.30576,-12.19048 -26.30576,-26.30577s12.19047,-26.30576 26.30576,-26.30576c14.11529,0 26.30577,11.54887 26.30577,26.30576zm0,0"/>
  <path id="svg_6" p-id="1257" fill="#FCEB88" d="m467.98543,134.09524c36.57142,10.26566 60.95238,35.28822 55.17794,55.17794c-5.77444,20.53133 -39.77945,28.23058 -76.35088,17.96491c-36.57143,-10.26566 -60.95238,-35.28822 -55.17794,-55.17794c5.77443,-19.88972 39.77945,-28.23058 76.35088,-17.96491zm0,0"/>
 </g>
</svg>