<?xml version="1.0" standalone="no"?><!DOCTYPE svg PUBLIC "-//W3C//DTD SVG 1.1//EN" "http://www.w3.org/Graphics/SVG/1.1/DTD/svg11.dtd"><svg t="1713325269670" class="icon" viewBox="0 0 1024 1024" version="1.1" xmlns="http://www.w3.org/2000/svg" p-id="3791" xmlns:xlink="http://www.w3.org/1999/xlink" width="192" height="192"><path d="M128.5632 517.6832s251.2896 205.4656 380.5184 205.4656 340.6336-158.464 386.4064-211.3024c-168.5504 210.2272-338.2784 388.1472-368.6912 387.328-30.4128-0.8192-369.2032-261.1712-398.2336-381.4912z" fill="#ffffff" p-id="3792"></path><path d="M512.9216 931.8912c-19.7632 0-39.5264-7.0656-55.5008-21.1456l-14.848-13.056C335.1552 803.584 111.8208 607.6416 60.8768 445.44 34.5088 361.472 47.4112 279.04 97.28 213.3504c52.4288-69.0688 139.8784-112.0256 223.0272-109.3632 92.3136 2.9184 155.4432 59.4432 189.3888 100.5056 33.792-45.2096 95.4368-95.488 187.904-100.608 69.3248-3.7376 170.24 33.536 229.4784 112.3328 35.2256 46.7968 69.0688 125.7984 30.4128 236.1856-58.5728 167.3216-292.5568 377.1392-390.4 459.5712-15.8208 13.312-35.0208 19.9168-54.1696 19.9168zM313.1392 165.2736c-61.3888 0-127.8976 33.7408-166.912 85.1968-26.5216 34.9696-52.6848 93.952-26.7264 176.5376 45.7728 145.7664 268.4928 341.0944 363.5712 424.4992l14.9504 13.1584c8.448 7.4752 20.8896 7.5776 29.5424 0.3072 73.3696-61.7984 316.9792-275.5584 372.0192-432.8448 23.5008-67.1232 16.0256-129.024-21.504-178.944-45.824-60.928-125.44-90.7264-176.9984-87.9104-99.1232 5.4784-149.3504 79.3088-160.3584 107.3152a30.60736 30.60736 0 0 1-26.7776 19.4048 30.7456 30.7456 0 0 1-28.8256-16.0256c-0.7168-1.28-59.904-107.2128-166.7072-110.592-1.792-0.0512-3.5328-0.1024-5.2736-0.1024z" fill="#ffffff" p-id="3793"></path><path d="M224.768 463.872c-9.8304 0-19.5072-4.7104-25.3952-13.5168-21.76-32.4096-47.0016-110.6432 13.1072-174.848 53.7088-57.344 125.9008-38.5536 156.5696-20.5824 14.6432 8.5504 19.5584 27.392 11.008 42.0352a30.73024 30.73024 0 0 1-41.8816 11.1104c-4.9664-2.816-48.128-25.4976-80.8448 9.472-40.7552 43.52-10.4448 93.2352-6.8608 98.7648 9.216 14.1312 5.3248 33.1776-8.7552 42.496-5.2224 3.4304-11.1104 5.0688-16.9472 5.0688z" fill="#ffffff" p-id="3794"></path></svg>