<?xml version="1.0" standalone="no"?><!DOCTYPE svg PUBLIC "-//W3C//DTD SVG 1.1//EN" "http://www.w3.org/Graphics/SVG/1.1/DTD/svg11.dtd"><svg t="1714031415878" class="icon" viewBox="0 0 1024 1024" version="1.1" xmlns="http://www.w3.org/2000/svg" p-id="15265" xmlns:xlink="http://www.w3.org/1999/xlink" width="192" height="192"><path d="M194.6 521.6v-134c0-52.3 42.8-95.1 95.1-95.1h117.9c52.3 0 95.1 42.8 95.1 95.1v134c0 52.3-42.8 95.1-95.1 95.1H289.8c-52.4 0-95.2-42.8-95.2-95.1z" fill="#285399" p-id="15266"></path><path d="M311.3 753.4c-8.3 0-15-6.7-15-15V620.5c0-8.3 6.7-15 15-15s15 6.7 15 15v117.9c0 8.3-6.8 15-15 15z" fill="#1A1A1A" p-id="15267"></path><path d="M379.2 719.1H243.3c-8.3 0-15-6.7-15-15s6.7-15 15-15h135.8c8.3 0 15 6.7 15 15s-6.6 15-14.9 15zM621.1 395.6h-2.5c-8.3 0-15-6.7-15-15s6.7-15 15-15h2.5c8.3 0 15 6.7 15 15s-6.7 15-15 15zM754.4 395.6h-99.8c-8.3 0-15-6.7-15-15s6.7-15 15-15h99.8c8.3 0 15 6.7 15 15s-6.7 15-15 15zM632.2 332.9c-5.2 0-10.3-2.7-13.1-7.6-4.1-7.2-1.5-16.4 5.7-20.4l51-28.9c7.2-4.1 16.4-1.5 20.4 5.7 4.1 7.2 1.5 16.4-5.7 20.4l-51 28.9c-2.2 1.3-4.8 1.9-7.3 1.9z" fill="#1A1A1A" p-id="15268"></path><path d="M738.6 331.7c-2.5 0-5-0.6-7.4-1.9l-51-28.9c-7.2-4.1-9.7-13.2-5.7-20.4 4.1-7.2 13.2-9.7 20.4-5.7l51 28.9c7.2 4.1 9.7 13.2 5.7 20.4-2.7 4.8-7.8 7.6-13 7.6z" fill="#1A1A1A" p-id="15269"></path><path d="M686.8 451.5c-8.3 0-15-6.7-15-15V287c0-8.3 6.7-15 15-15s15 6.7 15 15v149.5c0 8.3-6.7 15-15 15z" fill="#1A1A1A" p-id="15270"></path><path d="M194.6 521.6v-134c0-52.3 42.8-95.1 95.1-95.1h41.6c52.3 0 95.1 42.8 95.1 95.1v134c0 52.3-42.8 95.1-95.1 95.1h-41.6c-52.3 0-95.1-42.8-95.1-95.1z" fill="#3268CF" p-id="15271"></path><path d="M384.4 635.9H244.1c-54.5 0-98.9-48.2-98.9-107.5V389.2c0-59.3 44.4-107.5 98.9-107.5h140.4c54.5 0 98.9 48.2 98.9 107.5 0 8.3-6.7 15-15 15s-15-6.7-15-15c0-42.7-30.9-77.5-68.9-77.5H244.1c-38 0-68.9 34.8-68.9 77.5v139.2c0 42.7 30.9 77.5 68.9 77.5h140.4c38 0 68.9-34.8 68.9-77.5v-69c0-8.3 6.7-15 15-15s15 6.7 15 15v69c-0.1 59.3-44.4 107.5-99 107.5z" fill="#1A1A1A" p-id="15272"></path><path d="M568.4 540.1v134c0 52.3 42.8 95.1 95.1 95.1h117.9c52.3 0 95.1-42.8 95.1-95.1v-134c0-52.3-42.8-95.1-95.1-95.1H663.5c-52.3 0-95.1 42.8-95.1 95.1z" fill="#BC3506" p-id="15273"></path><path d="M568.4 540.1v134c0 52.3 42.8 95.1 95.1 95.1h41.6c52.3 0 95.1-42.8 95.1-95.1v-134c0-52.3-42.8-95.1-95.1-95.1h-41.6c-52.3 0-95.1 42.8-95.1 95.1z" fill="#F74E00" p-id="15274"></path><path d="M758.2 780H617.8c-54.5 0-98.9-48.2-98.9-107.5V533.3c0-59.3 44.4-107.5 98.9-107.5h140.4c54.5 0 98.9 48.2 98.9 107.5v21.4c0 8.3-6.7 15-15 15s-15-6.7-15-15v-21.4c0-42.7-30.9-77.5-68.9-77.5H617.8c-38 0-68.9 34.8-68.9 77.5v139.2c0 42.7 30.9 77.5 68.9 77.5h140.4c38 0 68.9-34.8 68.9-77.5v-16.7c0-8.3 6.7-15 15-15s15 6.7 15 15v16.7c0 59.3-44.4 107.5-98.9 107.5z" fill="#1A1A1A" p-id="15275"></path><path d="M842.1 636.8c-8.3 0-15-6.7-15-15v-26.3c0-8.3 6.7-15 15-15s15 6.7 15 15v26.3c0 8.3-6.7 15-15 15z" fill="#1A1A1A" p-id="15276"></path><path d="M227.8 444.2c-5.4 0-12.4-3.1-14.7-11.9-0.3-1.2-0.7-2.7-0.7-4.6v-6.2l4.4-4.4 10.6 10.6h15-14.6v0.4l10.2 10.2-10.2-10.2v16.1zM235.6 400.6c-1.4 0-2.9-0.2-4.3-0.6-7.9-2.4-12.4-10.7-10.1-18.7 8.4-27.9 24.4-47.4 25-48.2 5.3-6.4 14.7-7.3 21.1-2 6.4 5.3 7.3 14.7 2 21.1-0.3 0.3-12.9 16-19.4 37.7-1.9 6.5-7.9 10.7-14.3 10.7zM601.6 587.2l-14.6-0.1-0.4-14.6v-0.4c0-6.2 3.7-10 5.1-11.4 4-4.1 8.5-4.7 10.9-4.7v16.1l14-0.4-14 0.4 14-0.4-15 0.4v15.1z" fill="#FFFFFF" p-id="15277"></path><path d="M609.8 546.7c-1.6 0-3.3-0.3-4.9-0.8-7.8-2.7-12-11.2-9.3-19 0.4-1 8.9-25.6 27.7-46.5 5.5-6.2 15-6.7 21.2-1.1 6.2 5.5 6.7 15 1.1 21.2-14.6 16.2-21.5 36-21.6 36.2-2.1 6.1-7.9 10-14.2 10z" fill="#FFFFFF" p-id="15278"></path><path d="M987.5 893h-20.4c-8.3 0-15-6.7-15-15s6.7-15 15-15h20.4c8.3 0 15 6.7 15 15s-6.7 15-15 15zM917.5 893H484.3c-8.3 0-15-6.7-15-15s6.7-15 15-15h433.2c8.3 0 15 6.7 15 15s-6.7 15-15 15z" fill="#1A1A1A" p-id="15279"></path><path d="M515.9 893H253.5c-8.3 0-15-6.7-15-15s6.7-15 15-15h262.4c8.3 0 15 6.7 15 15s-6.7 15-15 15zM154.5 893H36.8c-8.3 0-15-6.7-15-15s6.7-15 15-15h117.7c8.3 0 15 6.7 15 15s-6.7 15-15 15z" fill="#1A1A1A" p-id="15280"></path><path d="M54.3 322.7c-0.8 0-1.5-0.7-1.5-1.5v-38.7c0-0.8 0.7-1.5 1.5-1.5s1.5 0.7 1.5 1.5v38.7c0 0.9-0.7 1.5-1.5 1.5z" fill="#F74E00" p-id="15281"></path><path d="M42.2 317.4c-0.4 0-0.7-0.1-1-0.4-0.6-0.6-0.7-1.5-0.1-2.1l25.1-27.4c0.6-0.6 1.5-0.7 2.1-0.1 0.6 0.6 0.7 1.5 0.1 2.1l-25.1 27.4c-0.3 0.3-0.7 0.5-1.1 0.5z" fill="#F74E00" p-id="15282"></path><path d="M67.4 317.1c-0.4 0-0.8-0.2-1.1-0.5l-25.1-27.4c-0.6-0.6-0.5-1.6 0.1-2.1 0.6-0.6 1.6-0.5 2.1 0.1l25.1 27.4c0.6 0.6 0.5 1.6-0.1 2.1-0.3 0.2-0.6 0.4-1 0.4z" fill="#F74E00" p-id="15283"></path><path d="M72 303.4H36.5c-0.8 0-1.5-0.7-1.5-1.5s0.7-1.5 1.5-1.5H72c0.8 0 1.5 0.7 1.5 1.5s-0.6 1.5-1.5 1.5z" fill="#F74E00" p-id="15284"></path><path d="M120.5 484.6h-7.4c-1.4 0-2.5-1.1-2.5-2.5s1.1-2.5 2.5-2.5h7.4c1.4 0 2.5 1.1 2.5 2.5s-1.1 2.5-2.5 2.5zM96.7 484.6h-7.4c-1.4 0-2.5-1.1-2.5-2.5s1.1-2.5 2.5-2.5h7.4c1.4 0 2.5 1.1 2.5 2.5s-1.1 2.5-2.5 2.5zM99 478.4c-0.7 0-1.3-0.3-1.8-0.8l-5.3-5.7c-0.9-1-0.9-2.6 0.2-3.5s2.6-0.9 3.5 0.2l5.3 5.7c0.9 1 0.9 2.6-0.2 3.5-0.5 0.4-1.1 0.6-1.7 0.6zM117.1 496.8c-0.7 0-1.3-0.3-1.8-0.8l-5.3-5.7c-0.9-1-0.9-2.6 0.2-3.5s2.6-0.9 3.5 0.2l5.3 5.7c0.9 1 0.9 2.6-0.2 3.5-0.5 0.4-1.1 0.6-1.7 0.6zM111.8 477.9c-0.6 0-1.2-0.2-1.7-0.7-1-0.9-1.1-2.5-0.2-3.5l5.3-5.7c0.9-1 2.5-1.1 3.5-0.2s1.1 2.5 0.2 3.5l-5.3 5.7c-0.4 0.6-1.1 0.9-1.8 0.9zM105.2 477.6c-1.4 0-2.5-1.1-2.5-2.5V467c0-1.4 1.1-2.5 2.5-2.5s2.5 1.1 2.5 2.5v8.1c0 1.4-1.1 2.5-2.5 2.5zM105.2 500.8c-1.4 0-2.5-1.1-2.5-2.5v-8.1c0-1.4 1.1-2.5 2.5-2.5s2.5 1.1 2.5 2.5v8.1c0 1.3-1.1 2.5-2.5 2.5zM94 496.7c-0.6 0-1.2-0.2-1.7-0.7-1-0.9-1.1-2.5-0.2-3.5l5.3-5.7c0.9-1 2.5-1.1 3.5-0.2 1 0.9 1.1 2.5 0.2 3.5l-5.3 5.7c-0.5 0.6-1.2 0.9-1.8 0.9z" fill="#42DA56" p-id="15285"></path><path d="M132.1 283H128c-3.1 0-5.7-2.5-5.7-5.7v-1c0-3.1 2.5-5.7 5.7-5.7h4.2c3.1 0 5.7 2.5 5.7 5.7v1c-0.1 3.2-2.7 5.7-5.8 5.7z" fill="#3268CF" p-id="15286"></path><path d="M90.6 605c-2.5 0-4.5-2-4.5-4.5v-0.8c0-2.5 2-4.5 4.5-4.5s4.5 2 4.5 4.5v0.8C95 603 93 605 90.6 605z" fill="#F74E00" p-id="15287"></path><path d="M57.1 413c-7.3 0-13.2-6-13.2-13.2v-2.4c0-7.3 6-13.2 13.2-13.2 7.3 0 13.2 6 13.2 13.2v2.4c0 7.3-5.9 13.2-13.2 13.2z" fill="#42DA56" p-id="15288"></path><path d="M965.2 458.8H959c-5.4 0-9.8-4.4-9.8-9.8v-1.3c0-5.4 4.4-9.8 9.8-9.8h6.2c5.4 0 9.8 4.4 9.8 9.8v1.3c0 5.4-4.4 9.8-9.8 9.8z m-6.2-15.9c-2.6 0-4.8 2.2-4.8 4.8v1.3c0 2.6 2.2 4.8 4.8 4.8h6.2c2.6 0 4.8-2.2 4.8-4.8v-1.3c0-2.6-2.2-4.8-4.8-4.8H959z" fill="#42DA56" p-id="15289"></path><path d="M915.6 389c-0.8 0-1.5-0.7-1.5-1.5V364c0-0.8 0.7-1.5 1.5-1.5s1.5 0.7 1.5 1.5v23.4c0 0.9-0.7 1.6-1.5 1.6z" fill="#0000FF" p-id="15290"></path><path d="M908.3 385.7c-0.4 0-0.7-0.1-1-0.4-0.6-0.6-0.7-1.5-0.1-2.1l15.2-16.6c0.6-0.6 1.5-0.7 2.1-0.1 0.6 0.6 0.7 1.5 0.1 2.1l-15.2 16.6c-0.3 0.3-0.7 0.5-1.1 0.5z" fill="#0000FF" p-id="15291"></path><path d="M923.5 385.5c-0.4 0-0.8-0.2-1.1-0.5l-15.2-16.6c-0.6-0.6-0.5-1.6 0.1-2.1 0.6-0.6 1.6-0.5 2.1 0.1l15.2 16.6c0.6 0.6 0.5 1.6-0.1 2.1-0.3 0.3-0.6 0.4-1 0.4z" fill="#0000FF" p-id="15292"></path><path d="M926.3 377.3h-21.5c-0.8 0-1.5-0.7-1.5-1.5s0.7-1.5 1.5-1.5h21.5c0.8 0 1.5 0.7 1.5 1.5s-0.7 1.5-1.5 1.5z" fill="#0000FF" p-id="15293"></path><path d="M967.8 545.2h-7.4c-1.4 0-2.5-1.1-2.5-2.5s1.1-2.5 2.5-2.5h7.4c1.4 0 2.5 1.1 2.5 2.5s-1.2 2.5-2.5 2.5zM944 545.2h-7.4c-1.4 0-2.5-1.1-2.5-2.5s1.1-2.5 2.5-2.5h7.4c1.4 0 2.5 1.1 2.5 2.5s-1.2 2.5-2.5 2.5zM946.2 539.1c-0.7 0-1.3-0.3-1.8-0.8l-5.3-5.7c-0.9-1-0.9-2.6 0.2-3.5 1-0.9 2.6-0.9 3.5 0.2l5.3 5.7c0.9 1 0.9 2.6-0.2 3.5-0.4 0.3-1.1 0.6-1.7 0.6zM964.3 557.4c-0.7 0-1.3-0.3-1.8-0.8l-5.3-5.7c-0.9-1-0.9-2.6 0.2-3.5 1-0.9 2.6-0.9 3.5 0.2l5.3 5.7c0.9 1 0.9 2.6-0.2 3.5-0.5 0.4-1.1 0.6-1.7 0.6zM959 538.5c-0.6 0-1.2-0.2-1.7-0.7-1-0.9-1.1-2.5-0.2-3.5l5.3-5.7c0.9-1 2.5-1.1 3.5-0.2 1 0.9 1.1 2.5 0.2 3.5l-5.3 5.7c-0.4 0.6-1.1 0.9-1.8 0.9zM952.4 538.3c-1.4 0-2.5-1.1-2.5-2.5v-8.1c0-1.4 1.1-2.5 2.5-2.5s2.5 1.1 2.5 2.5v8.1c0 1.4-1.1 2.5-2.5 2.5zM952.4 561.4c-1.4 0-2.5-1.1-2.5-2.5v-8.1c0-1.4 1.1-2.5 2.5-2.5s2.5 1.1 2.5 2.5v8.1c0 1.4-1.1 2.5-2.5 2.5zM941.2 557.3c-0.6 0-1.2-0.2-1.7-0.7-1-0.9-1.1-2.5-0.2-3.5l5.3-5.7c0.9-1 2.5-1.1 3.5-0.2 1 0.9 1.1 2.5 0.2 3.5l-5.3 5.7c-0.5 0.6-1.1 0.9-1.8 0.9z" fill="#F74E00" p-id="15294"></path><path d="M904.2 627h-4.3c-1.2 0-2.1-1-2.1-2.1v-0.4c0-1.2 1-2.1 2.1-2.1h4.3c1.2 0 2.1 1 2.1 2.1v0.4c0 1.2-0.9 2.1-2.1 2.1z" fill="#3268CF" p-id="15295"></path><path d="M905.4 511.7h-9.3c-4 0-7.2-3.2-7.2-7.2v-0.8c0-4 3.2-7.2 7.2-7.2h9.3c4 0 7.2 3.2 7.2 7.2v0.8c0 4-3.2 7.2-7.2 7.2z m-9.3-10.2c-1.2 0-2.2 1-2.2 2.2v0.8c0 1.2 1 2.2 2.2 2.2h9.3c1.2 0 2.2-1 2.2-2.2v-0.8c0-1.2-1-2.2-2.2-2.2h-9.3z" fill="#F74E00" p-id="15296"></path><path d="M893.9 299.3a5.7 6.3 0 1 0 11.4 0 5.7 6.3 0 1 0-11.4 0Z" fill="#3268CF" p-id="15297"></path></svg>