<svg width="800" height="800" xmlns="http://www.w3.org/2000/svg" p-id="1418" version="1.1" class="icon" t="1713177413215">

 <g>
  <title>Layer 1</title>
  <path id="svg_1" p-id="1419" fill="#FDDF6D" d="m725.82205,400.11779c0,179.64913 -145.64411,325.93484 -325.93483,325.93484c-179.64913,0 -325.93484,-145.64411 -325.93484,-325.93484c0,-179.64912 145.64411,-325.93483 325.93484,-325.93483c180.29072,0 325.93483,145.64411 325.93483,325.93483zm0,0"/>
  <path id="svg_2" p-id="1420" fill="#FCC56B" d="m470.46366,677.29073c-179.64912,0 -325.93484,-145.64411 -325.93484,-325.93484c0,-96.2406 41.70426,-182.21554 107.78948,-241.88471c-105.22306,53.89473 -177.72432,163.60902 -177.72432,290.00501c0,179.64912 145.64411,325.93484 325.93484,325.93484c84.05013,0 160.401,-31.4386 217.50376,-83.40852c-44.27068,22.45614 -94.31579,35.28822 -147.56892,35.28822zm0,0"/>
  <path id="svg_3" p-id="1421" fill="#7F184C" d="m387.69674,312.21805c-7.05764,0 -13.47368,-5.77444 -13.47368,-13.47369c0,-17.32331 -14.11529,-30.79699 -30.797,-30.79699c-17.3233,0 -30.79699,14.11529 -30.79699,30.79699c0,7.05765 -5.77443,13.47369 -13.47368,13.47369c-7.05765,0 -13.47369,-5.77444 -13.47369,-13.47369c0,-31.43859 25.66416,-57.74436 57.74436,-57.74436c31.4386,0 57.74437,25.66416 57.74437,57.74436c-0.64161,7.69925 -6.41604,13.47369 -13.47369,13.47369zm0,0m223.9198,0c-7.05764,0 -13.47368,-5.77444 -13.47368,-13.47369c0,-17.32331 -14.11529,-30.79699 -30.797,-30.79699s-31.43859,14.11529 -31.43859,30.79699c0,7.05765 -5.77444,13.47369 -13.47369,13.47369c-7.05764,0 -13.47368,-5.77444 -13.47368,-13.47369c0,-31.43859 25.66416,-57.74436 57.74436,-57.74436c31.4386,0 57.74436,25.66416 57.74436,57.74436c0,7.69925 -5.77443,13.47369 -12.83208,13.47369zm0,0"/>
  <path id="svg_4" p-id="1422" fill="#FFFFFF" d="m448.00752,637.51128c-94.31579,0 -170.66667,-76.35088 -170.66667,-170.66667l340.69173,0c0,94.31579 -76.35088,170.66667 -170.02506,170.66667zm0,0"/>
  <path id="svg_5" p-id="1423" fill="#E6E6E6" d="m294.02256,541.27068c4.49122,9.62406 9.62406,17.96491 16.0401,26.30576l275.88972,0c5.77444,-8.34085 11.54887,-17.32331 16.0401,-26.30576l-307.96992,0zm0,0"/>
  <path id="svg_6" p-id="1424" fill="#F9A880" d="m260.65915,379.58647c-24.38095,0 -43.62907,19.88972 -43.62907,43.62907l87.25814,0c0,-23.73935 -19.88972,-43.62907 -43.62907,-43.62907zm0,0m381.75438,0c-24.38095,0 -43.62907,19.88972 -43.62907,43.62907l87.25815,0c0,-23.73935 -19.24812,-43.62907 -43.62908,-43.62907zm0,0"/>
  <path id="svg_7" p-id="1425" fill="#FCEB88" d="m457.63158,130.64411c35.92982,10.26566 60.95238,34.64662 55.17794,55.17795c-5.77443,19.88972 -39.77944,28.23057 -75.70927,17.96491c-35.92982,-10.26567 -60.95238,-34.64662 -55.17794,-55.17795c5.77443,-19.88972 39.77945,-27.58897 75.70927,-17.96491zm0,0"/>
 </g>
</svg>