<?xml version="1.0" standalone="no"?><!DOCTYPE svg PUBLIC "-//W3C//DTD SVG 1.1//EN" "http://www.w3.org/Graphics/SVG/1.1/DTD/svg11.dtd"><svg t="1714031195892" class="icon" viewBox="0 0 1024 1024" version="1.1" xmlns="http://www.w3.org/2000/svg" p-id="13783" xmlns:xlink="http://www.w3.org/1999/xlink" width="192" height="192"><path d="M661.72 593.886c34.213-15.606 71.06-14.528 109.195-1.225 25.183 8.784 45.418 20.063 73.642 38.585 14.815 9.723 33.39 13.848 56.822 11.946l0.849-0.072 5.544 63.76c-37.5 3.26-70.655-3.966-98.329-22.126-24.127-15.834-40.687-25.064-59.608-31.665-23.82-8.309-44.17-8.904-61.555-0.975-11.568 5.277-16.674 14.865-24.439 46.514l-3.289 13.556-0.505 2.017c-4.45 17.63-8.63 30.227-14.896 42.751-8.654 17.3-20.352 31.605-36.074 42.753l-0.79 0.554c-10.97 7.641-17.083 18.316-19.018 34.329-2.317 19.181 1.682 44.971 12.633 76.962l0.344 1.001-60.492 20.898c-14.122-40.88-19.682-76.251-16.023-106.537 4.025-33.317 19.31-60.268 45.194-78.618l0.787-0.553c12.7-8.845 19.34-21.787 26.3-49.281l1.777-7.233 1.496-6.215c5.49-22.7 8.976-34.041 15.583-47.132 9.98-19.777 24.496-34.709 44.852-43.994z" fill="#ffffff" p-id="13784"></path><path d="M512 64c247.04 0 448 200.96 448 448S759.04 960 512 960 64 759.04 64 512 264.96 64 512 64z m118.277 91.052l-0.029 0.142c-2.238 11.771-1.377 19.902 1.572 26.228l0.23 0.486c2.895 5.958 7.6 11.074 19.35 21.24l4.552 3.914c13.244 11.425 20.027 18.183 27.048 28.283 10.44 15.021 16 32.046 16 51.655 0 26.597-9.028 47.025-28.026 59.584-7.607 5.028-15.966 8.245-25.647 10.477l-1.3 0.294c-5.175 1.141-10.172 1.923-17.773 2.883l-8.043 0.995c-17.934 2.255-24.986 3.673-34.046 7.13-8.301 3.167-15.516 7.588-22.18 13.89-4.144 3.917-5.938 8.433-6.176 16.217l-0.013 0.49c-0.185 8.473 1.154 17.022 5.472 36.882l1.433 6.569c3.059 14.13 4.531 22.175 5.55 31.623 1.584 14.697 1.13 27.9-2.086 40.583-8.04 31.715-32.025 54.2-71.373 66.848-32.242 10.364-60.89 10.828-86.94 2.238-19.398-6.398-34.229-16.005-53-31.972l-4.364-3.762-6.695-5.831-1.417-1.224a251.256 251.256 0 0 0-5.464-4.594l-1.15-0.927c-12.83-10.274-17.346-11.257-28.11-5.941l-0.341 0.17c-11.797 5.898-17.879 12.037-21.03 19.295-2.79 6.428-3.835 14.802-3.45 27.71l0.076 2.206c0.09 2.288 0.211 4.613 0.417 8.023l0.55 8.945c0.747 12.617 0.876 18.97 0.368 27.227-0.867 14.114-3.861 26.579-10.045 38.102-15.379 28.66-42.373 46-79.046 53.121C262.024 818.664 379.062 888 512 888c207.337 0 376-168.663 376-376 0-166.034-108.159-307.268-257.723-356.948zM512 136c-207.337 0-376 168.663-376 376 0 50.124 9.857 97.987 27.735 141.754 30.188-1.577 47.075-9.851 54.068-22.884l0.167-0.32c2.678-5.274 3.125-13.452 1.727-35.68l-0.355-5.81a357.62 357.62 0 0 1-0.454-9.59c-0.733-21.951 1.333-39.103 8.688-56.044 9.352-21.536 26.293-38.638 51.113-51.048 19.471-9.735 38.518-12.459 57.026-8.074 14.76 3.497 27.097 10.649 41.12 21.993l0.905 0.736c2.265 1.85 4.57 3.8 7.353 6.208l9.772 8.497 1.258 1.076c13.067 11.13 21.868 16.842 31.774 20.108 12.738 4.201 27.563 3.96 47.31-2.387 11.105-3.57 18.572-7.659 23.132-11.933 3.102-2.909 4.812-5.86 5.79-9.714l0.13-0.532c1.972-8.39 0.874-19.178-4.102-42.358l-1.68-7.72c-5.248-24.22-6.994-35.689-6.666-50.718 0.53-24.2 8.618-45.185 26.205-61.813 12.96-12.253 27.39-21.096 43.334-27.18 9.387-3.581 19.003-6.116 29.549-8.028l2.66-0.473c4.946-0.859 8.652-1.358 18.17-2.524l4.576-0.56c10.187-1.264 15.46-2.27 17.963-3.143l0.174-0.063 0.038-0.18 0.076-0.405c0.28-1.577 0.444-3.635 0.444-6.191l-0.005-0.672c-0.154-10.642-4.106-16.343-20.984-30.922l-5.066-4.358c-7.497-6.482-11.882-10.558-16.76-15.815-7.686-8.285-13.792-16.943-18.374-26.773-9.227-19.795-11.2-42.276-5.797-68.29A376.487 376.487 0 0 0 512 136z" fill="#ffffff" p-id="13785"></path></svg>