<svg width="1024" height="1024" xmlns="http://www.w3.org/2000/svg" class="icon">

 <g>
  <title>background</title>
  <rect fill="none" id="canvas_background" height="402" width="582" y="-1" x="-1"/>
 </g>
 <g>
  <title>Layer 1</title>
  <path id="svg_1" class="selected" fill="#4d6dde" d="m891.1,501.6l-332,-286.1c-9.2,-7.9 -23.3,-1.4 -23.3,10.7l0,167.8c0,7.5 -5.9,13.8 -13.4,14.1c-192.2,6.9 -353.8,146.4 -387.8,337.7l-6.3,35.5c-2.5,13.8 14.5,22.4 24.2,12.2l24.8,-26.2c89.7,-94.9 214.3,-148.2 344.4,-147.7c7.8,0 14.2,6.3 14.2,14.1l0,164.2c0,12.1 14.2,18.6 23.3,10.7l332,-285.6c6.4,-5.7 6.4,-15.8 -0.1,-21.4zm-683,171.6c56,-128.9 183.6,-215.7 329.4,-215.7l34,0c7.8,0 14.1,-6.3 14.1,-14.1l0,-139.3l241.5,208.2l-241.5,207.7l0,-135.8c0,-7.8 -6.3,-14.1 -14.1,-14.1l-30.9,0c-120.3,-4.8 -237.5,32.2 -332.5,103.1z"/>
 </g>
</svg>