<?xml version="1.0" standalone="no"?><!DOCTYPE svg PUBLIC "-//W3C//DTD SVG 1.1//EN" "http://www.w3.org/Graphics/SVG/1.1/DTD/svg11.dtd"><svg t="1713406795354" class="icon" viewBox="0 0 1024 1024" version="1.1" xmlns="http://www.w3.org/2000/svg" p-id="27242" xmlns:xlink="http://www.w3.org/1999/xlink" width="192" height="192"><path d="M511.051205 59.594343a451.147254 451.147254 0 1 1-319.384532 132.132254A451.107305 451.107305 0 0 1 511.051205 59.594343m0-59.374622C228.729621 0.219721 0 229.099151 0 511.220989s228.709646 511.061192 511.051205 511.061192 511.051205-228.709646 511.051204-511.061192S793.372788 0.219721 511.051205 0.219721z m0 0" fill="#4d6dde" p-id="27243" data-spm-anchor-id="a313x.search_index.0.i3.757d3a81TsHDJs" class="selected"></path><path d="M517.14347 774.287018c-2.996196 0-5.992392-1.777743-8.469248-5.333229a21.772359 21.772359 0 0 1-3.994928-13.363035q0-41.417419 60.123671-243.131337 36.733366-123.353399 36.813264-139.822491c0-9.0585-3.275841-16.329269-9.647751-21.522677-6.381898-5.343217-15.740018-7.989857-27.754765-7.989856q-32.958159 0-79.708807 26.426451t-103.628441 88.887155l24.968302 19.305491c33.407588-32.508729 54.780455-51.934068 64.428207-57.926461 9.647752-6.092266 18.256822-9.0585 25.827211-9.0585 6.831327 0 10.237004 3.855106 10.237004 11.435483 0 6.82134-1.328314 14.541539-3.994928 23.310406q-85.321681 276.089496-85.201834 347.239169c0 14.841159 3.855106 26.256666 11.575305 34.576105s18.256822 12.474164 31.470048 12.474163c15.150766 0 34.735902-6.831327 58.475763-20.483994q35.864469-20.573881 113.685672-93.850854l-22.171852-21.522676c-49.936604 46.940408-81.037121 70.350688-93.051867 70.350687z m23.590052-541.023154a50.326109 50.326109 0 1 0 25.168048-43.584668 50.316122 50.316122 0 0 0-25.168048 43.584668z m0 0" fill="#4d6dde" p-id="27244" data-spm-anchor-id="a313x.search_index.0.i2.757d3a81TsHDJs" class="selected"></path></svg>